<?xml version="1.0" encoding="UTF-8"?>
<svg width="710px" height="843px" viewBox="0 0 710 843" version="1.1" xmlns="http://www.w3.org/2000/svg" xmlns:xlink="http://www.w3.org/1999/xlink">
    <!-- Generator: Sketch 56.3 (81716) - https://sketch.com -->
    <title>mulit__12</title>
    <desc>Created with Sketch.</desc>
    <g id="Page-1" stroke="none" stroke-width="1" fill="none" fill-rule="evenodd">
        <g id="Artboard">
            <g id="mulit__12" transform="translate(-1.000000, -1.000000)">
                <g id="offerBrandImg-layer-01" transform="translate(0.420000, 0.650000)" fill-rule="nonzero">
                    <g transform="translate(173.000000, 60.000000)">
                        <rect id="Rectangle" fill="#F9D76A" transform="translate(296.548615, 350.736188) rotate(-30.000000) translate(-296.548615, -350.736188) " x="220.273615" y="312.956188" width="152.55" height="75.56"></rect>
                        <rect id="Rectangle" fill="#DF4339" transform="translate(330.759310, 407.834271) rotate(-32.090000) translate(-330.759310, -407.834271) " x="231.69431" y="376.634271" width="198.13" height="62.4"></rect>
                        <rect id="Rectangle" fill="#DF4339" transform="translate(360.698564, 457.741979) rotate(-32.090000) translate(-360.698564, -457.741979) " x="296.018564" y="437.371979" width="129.36" height="40.74"></rect>
                        <circle id="Oval" fill="#F9D76A" cx="194.61" cy="194.61" r="194.61"></circle>
                        <path d="M333.26,507.92 L413.46,456.6 C413.46,456.6 426.29,538.93 333.26,507.92 Z" id="Path" fill="#DF4339"></path>
                    </g>
                </g>
                <g id="offerBrandImg-layer-02" transform="translate(0.860000, 0.780000)" fill-rule="nonzero">
                    <g transform="translate(69.000000, 49.000000)" id="Oval">
                        <circle fill="#4747F3" cx="12.31" cy="430.04" r="12.31"></circle>
                        <circle fill="#4747F3" cx="54.01" cy="226.33" r="6.2"></circle>
                        <circle fill="#F9D76A" cx="102.39" cy="16.69" r="16.69"></circle>
                        <circle fill="#DF4339" cx="553.5" cy="140.22" r="28.83"></circle>
                    </g>
                </g>
                <g id="offerBrandImg-layer-00-2" transform="translate(0.800000, 0.488179)" stroke="#000000" stroke-width="3">
                    <g id="offerBrandImg-layer-00" transform="translate(1.000000, 1.000000)">
                        <path d="M91,416.121821 L2.84217094e-14,138.681821 C2.84217094e-14,138.681821 115.2,17.0318213 182.09,155.071821 L222.09,164.451821 L193.75,204.591821 L236.52,317.931821" id="Path"></path>
                        <path d="M272.71,439.081821 L239.08,399.341821 L255.92,323.341821 C256.97332,318.585809 255.904014,313.606861 252.990794,309.702724 C250.077575,305.798587 245.609076,303.356075 240.75,303.011821 L240.75,303.011821 C232.482873,302.418099 225.023326,307.956441 223.2,316.041821 L202.59,408.651821 L229.09,458.831821 C229.09,458.831821 263.71,519.941821 203.09,586.211821" id="Path"></path>
                        <path d="M241.46,391.671821 L260.02,327.131821 C260.642601,324.400687 262.030034,321.903308 264.02,319.931821 L294.9,289.131821 C297.992945,286.05134 302.285986,284.490007 306.635229,284.863845 C310.984473,285.237684 314.948104,287.508717 317.47,291.071821 L317.47,291.071821 C321.65097,296.980093 320.948953,305.044828 315.81,310.141821 L287.93,337.851821 C286.13,339.651821 284.81,341.851821 283.07,345.791821 L277.67,399.921821" id="Path"></path>
                        <path d="M278.2,401.211821 L289.31,347.651821 C289.936018,344.919093 291.322813,342.419394 293.31,340.441821 L324.2,309.651821 C327.291329,306.568026 331.585266,305.004426 335.9357,305.378366 C340.286134,305.752307 344.250261,308.025728 346.77,311.591821 L346.77,311.591821 C350.942478,317.50239 350.240986,325.561097 345.11,330.661821 L317.2,358.361821 C315.394164,360.162401 314.082087,362.397408 313.39,364.851821 L301.28,414.271821" id="Path"></path>
                        <path d="M302.34,416.211821 L319.34,364.161821 C319.971054,361.436837 321.35739,358.944897 323.34,356.971821 L354.2,326.181821 C357.281754,323.095804 361.568439,321.527268 365.914139,321.895515 C370.259839,322.263762 374.221467,324.531245 376.74,328.091821 L376.74,328.091821 C380.884265,333.9885 380.174657,342.013826 375.06,347.091821 L347.2,374.831821 C345.391672,376.624262 344.075998,378.852641 343.38,381.301821 L328.52,426.121821" id="Path"></path>
                        <path d="M328.54,425.511821 L349.8,381.311821 C350.302555,379.120624 351.415516,377.116601 353.01,375.531821 L377.85,350.771821 C380.328531,348.290149 383.775618,347.028268 387.270589,347.32321 C390.76556,347.618152 393.95242,349.439876 395.98,352.301821 L395.98,352.301821 C399.319371,357.052693 398.74922,363.51863 394.63,367.611821 L372.2,389.891821 C370.750144,391.335128 369.693351,393.125136 369.13,395.091821 L357.13,437.261821 L328.13,505.421821 C328.13,505.421821 345.54,794.111821 281.08,809.251821 C216.62,824.391821 136.48,590.011821 110.26,704.991821" id="Path"></path>
                        <path d="M336.96,442.111821 C336.96,442.111821 341.35,418.921821 262.6,404.371821" id="Path"></path>
                        <path d="M341.2,155.121821 L296.2,130.121821 L285.2,53.8718213 C284.510103,49.100871 281.776748,44.8668743 277.712824,42.2741062 C273.6489,39.6813381 268.65734,38.9868679 264.04,40.3718213 L264.04,40.3718213 C256.183638,42.7249643 251.233059,50.4740658 252.4,58.5918213 L265.63,151.511821 L307.71,188.671821 C307.71,188.671821 363.26,221.231821 330.35,303.771821" id="Path"></path>
                        <path d="M295.64,122.191821 L290.2,55.9718213 C289.819419,53.2295231 290.221537,50.4354977 291.36,47.9118213 L309.2,8.61182132 C310.981762,4.67779953 314.4075,1.72955795 318.563078,0.553814552 C322.718656,-0.621928848 327.181233,0.0944613392 330.76,2.51182132 L330.76,2.51182132 C336.68712,6.51915634 338.858928,14.2176649 335.9,20.7318213 L319.8,56.1318213 C318.75,58.4218213 318.32,60.9518213 318.08,65.1818213 L332.01,117.181821" id="Path"></path>
                        <path d="M332.95,118.171821 L324.49,64.7218213 C324.107011,61.9785625 324.512824,59.1829594 325.66,56.6618213 L343.46,17.3618213 C345.239072,13.4252669 348.664846,10.4745806 352.821577,9.29851095 C356.978309,8.12244125 361.442197,8.84089468 365.02,11.2618213 L365.02,11.2618213 C370.984118,15.2549 373.177039,22.980924 370.2,29.5118213 L354.1,64.9018213 C353.052116,67.1982944 352.617972,69.7273525 352.84,72.2418213 L358.93,122.241821" id="Path"></path>
                        <path d="M360.57,123.601821 L358.06,69.5118213 C357.682268,66.7718424 358.087907,63.9809064 359.23,61.4618213 L377.04,22.1618213 C378.816514,18.2310738 382.235046,15.283019 386.384231,14.1035943 C390.533416,12.9241697 394.991508,13.6332586 398.57,16.0418213 L398.57,16.0418213 C404.483148,20.0510092 406.642181,27.7407142 403.68,34.2418213 L387.57,69.6118213 C386.52433,71.9055839 386.086953,74.4299728 386.3,76.9418213 L388.2,123.611821" id="Path"></path>
                        <path d="M388.05,123.021821 L392.27,74.6918213 C391.970814,72.4887237 392.300128,70.2459229 393.22,68.2218213 L407.54,36.6218213 C408.964148,33.4577503 411.71185,31.0832851 415.048949,30.1328577 C418.386048,29.1824303 421.972484,29.7528919 424.85,31.6918213 L424.85,31.6918213 C429.60435,34.9183669 431.340408,41.1022801 428.96,46.3318213 L415.96,74.7918213 C415.127834,76.6406811 414.783541,78.6720082 414.96,80.6918213 L418.63,123.901821 L415.63,197.111821 C415.63,197.111821 532.75,458.111821 478.4,494.721821 C424.05,531.331821 370.2,619.401821 386.2,734.961821" id="Path"></path>
                        <path d="M399.56,129.901821 C399.56,129.901821 395.51,106.901821 317.56,120.991821" id="Path"></path>
                        <path d="M414.28,816.351821 C414.28,816.351821 635.35,657.421821 622.94,656.631821 C610.53,655.841821 583.66,665.811821 583.66,665.811821 C583.66,665.811821 650.15,626.561821 613.41,631.881821 C576.67,637.201821 554.93,650.571821 554.93,650.571821 C554.93,650.571821 619.26,606.201821 581.67,612.811821 C544.08,619.421821 521.52,639.631821 521.52,639.631821 C521.52,639.631821 592.58,573.841821 546.52,587.771821 C500.46,601.701821 491.08,615.851821 491.08,615.851821 C491.08,615.851821 534.35,550.211821 506.21,564.851821 C478.07,579.491821 407.56,669.691821 407.56,669.691821 C407.56,669.691821 -66.28,405.391821 71.85,655.211821 C209.98,905.031821 264.35,708.211821 305.24,842.211821" id="Path"></path>
                        <path d="M560.49,315.791821 C563.7,306.171821 714.49,148.981821 683.49,301.891821 C652.49,454.801821 601.15,602.371821 601.15,602.371821" id="Path"></path>
                        <path d="M575.46,584.191821 C575.46,584.191821 623.58,516.821821 610.75,545.701821 C597.92,574.581821 595.75,587.401821 595.75,587.401821 C595.75,587.401821 649.21,509.341821 636.38,547.831821 C623.55,586.321821 607.51,607.721821 607.51,607.721821 C607.51,607.721821 679.15,517.891821 655.63,562.801821 C632.11,607.711821 623.55,622.691821 623.55,622.691821 C623.55,622.691821 704.84,527.511821 675.97,573.511821 C647.1,619.511821 637.48,633.391821 637.48,633.391821 C637.48,633.391821 731.58,529.671821 703.78,583.131821 C675.98,636.591821 628.92,664.401821 628.92,664.401821" id="Path"></path>
                    </g>
                </g>
            </g>
        </g>
    </g>
</svg>