<?xml version="1.0" encoding="UTF-8"?>
<svg width="844px" height="894px" viewBox="0 0 844 894" version="1.1" xmlns="http://www.w3.org/2000/svg" xmlns:xlink="http://www.w3.org/1999/xlink">
    <!-- Generator: Sketch 56.3 (81716) - https://sketch.com -->
    <title>mulit__7</title>
    <desc>Created with Sketch.</desc>
    <g id="Page-1" stroke="none" stroke-width="1" fill="none" fill-rule="evenodd">
        <g id="mulit__7" transform="translate(2.000000, 0.000000)">
            <path d="M596.08,529.81 L372.36,515.12 C364.614634,514.610922 357.394238,511.026468 352.306184,505.164594 C347.21813,499.30272 344.684745,491.649983 345.27,483.91 L379.55,29.4 C380.681241,14.3416991 393.150062,2.65489537 408.25,2.5 L624.54,0.248476405 C632.594882,0.167622419 640.323322,3.42892508 645.884097,9.25693502 C651.444871,15.084945 654.340091,22.9578468 653.88,31 L627,502.44 C626.557752,510.180373 623.04395,517.423969 617.238631,522.562766 C611.433311,527.701563 603.816835,530.310351 596.08,529.81 Z" id="Path" fill="#F8D76B" fill-rule="nonzero"></path>
            <polygon id="Path" fill="#DF4339" fill-rule="nonzero" points="608.25 305.04 390.11 299.34 398.66 186.7 616.8 193.83"></polygon>
            <path d="M369.44,384.6 L429.89,278.6 C432.091827,274.850297 435.693475,272.129245 439.902125,271.035821 C444.110776,269.942398 448.581438,270.566231 452.33,272.77 L452.33,272.77 C456.079023,274.969908 458.799886,278.569772 459.893374,282.776796 C460.986863,286.98382 460.363296,291.452967 458.16,295.2 L401.65,391.43 C401.65,391.43 353.39,474.88 360.75,479.56" id="Path" stroke="#000000" stroke-width="3"></path>
            <path d="M315.27,407.34 L360.82,331.66 C365.408797,323.856199 375.452981,321.246681 383.26,325.83 L383.26,325.83 C387.009703,328.031827 389.730755,331.633475 390.824179,335.842125 C391.917602,340.050776 391.293769,344.521438 389.09,348.27 L359.41,401.32" id="Path" stroke="#000000" stroke-width="3"></path>
            <path d="M277.15,408.68 L320.89,336 C325.48239,328.200959 335.522159,325.592588 343.33,330.17 L343.33,330.17 C347.079703,332.371827 349.800755,335.973475 350.894179,340.182125 C351.987602,344.390776 351.363769,348.861438 349.16,352.61 L315.27,408" id="Path" stroke="#000000" stroke-width="3"></path>
            <path d="M361.17,479.84 L406.72,404.16 C408.919908,400.410977 412.519772,397.690114 416.726796,396.596626 C420.93382,395.503137 425.402967,396.126704 429.15,398.33 L429.15,398.33 C432.900358,400.528464 435.623684,404.126808 436.720792,408.333325 C437.817899,412.539841 437.198905,417.009901 435,420.76 L405.32,473.82 C405.32,473.82 361.43,554.47 299.9,524.37 C299.9,524.37 219.65,525.84 312.32,614.24 C404.99,702.64 262.42,878 91.32,782.47" id="Path" stroke="#000000" stroke-width="3"></path>
            <path d="M514.91,614.77 C564.24,527.42 628.39,572 628.39,572 L654.16,549 L662.27,453.52 C662.914037,445.91224 669.275029,440.063951 676.91,440.06 L676.91,440.06 C680.9069,440.06 684.731403,441.687852 687.501425,444.569203 C690.271447,447.450555 691.747808,451.336217 691.59,455.33 L688.08,545.92 L688.08,559.28 L563.72,681.06 C563.72,681.06 554.48,613.26 488.19,636.87 C424.48,659.56 402.54,785.4 340.71,717.55" id="Path" stroke="#000000" stroke-width="3"></path>
            <path d="M483.56,565.44 C483.56,565.44 466.09,582.92 476.37,609.64" id="Path" stroke="#000000" stroke-width="3"></path>
            <circle id="Oval" fill="#DF4339" fill-rule="nonzero" cx="489.61" cy="443.74" r="38.5"></circle>
            <path d="M577.25,506.11 L393.05,490.11 C376.414347,488.667153 364.041511,474.099856 365.31,457.45 L396.82,44 C397.858929,30.4027876 409.183174,19.8930169 422.82,19.87 L601.58,19.87 C610.728618,19.87 619.474138,23.634537 625.761958,30.2798771 C632.049777,36.9252171 635.325661,45.8653666 634.82,55 L611.47,476.43 C610.998579,484.953368 607.092398,492.921646 600.643652,498.514831 C594.194906,504.108015 585.754401,506.848377 577.25,506.11 L577.25,506.11 Z" id="Path" stroke="#000000" stroke-width="3"></path>
            <rect id="Rectangle" stroke="#000000" stroke-width="3" x="453.2" y="38.78" width="125.11" height="17.11" rx="8.55"></rect>
            <path d="M224.43,432.85 L224.72,199.53 L257.51,179.53 L179.1,82.62 C179.1,82.62 47.58,53.62 39.38,243.73 C30.82,441.91 -32.33,727.58 70.73,727.58 C173.79,727.58 208.16,552.19 304,640.79" id="Path" stroke="#000000" stroke-width="3"></path>
            <path d="M522.75,725.41 C522.75,725.41 628,746.46 638.5,702.61 C649,658.76 701.63,483.39 701.63,511.45 C701.63,539.51 687.63,592.12 691.11,583.35 C694.59,574.58 719.17,444.8 729.69,490.35 C740.21,535.9 724.43,579.8 724.43,579.8 C724.43,579.8 761.26,455.28 764.77,485.09 C768.28,514.9 747.23,583.3 747.23,583.3 C747.23,583.3 792.83,450.02 799.85,485.09 C806.87,520.16 771.79,600.84 771.79,600.84 C771.79,600.84 827.91,427.22 838.43,478.08 C848.95,528.94 815.63,665.73 815.63,665.73 C815.63,665.73 805.11,842.87 701.63,821.82 C598.15,800.77 291.24,999 121.13,809.59 C-48.98,620.18 -10.41,586.86 61.5,636" id="Path" stroke="#000000" stroke-width="3"></path>
            <circle id="Oval" fill="#F8D76B" fill-rule="nonzero" cx="30.11" cy="103.3" r="13.78"></circle>
            <circle id="Oval" fill="#4748F3" fill-rule="nonzero" cx="772.21" cy="322.04" r="11.3"></circle>
            <circle id="Oval" fill="#4748F3" fill-rule="nonzero" cx="128.11" cy="470.6" r="13.78"></circle>
        </g>
    </g>
</svg>