<?xml version="1.0" encoding="UTF-8"?>
<svg width="842px" height="735px" viewBox="0 0 842 735" version="1.1" xmlns="http://www.w3.org/2000/svg" xmlns:xlink="http://www.w3.org/1999/xlink">
    <!-- Generator: Sketch 56.3 (81716) - https://sketch.com -->
    <title>mulit__4</title>
    <desc>Created with Sketch.</desc>
    <g id="Page-1" stroke="none" stroke-width="1" fill="none" fill-rule="evenodd">
        <g id="Artboard">
            <g id="mulit__4" transform="translate(-1.000000, -1.000000)">
                <g id="offerWebsiteImg-layer-00" transform="translate(0.040000, 0.753978)" fill="#DF4339" fill-rule="nonzero">
                    <g transform="translate(298.000000, 82.000000)">
                        <path d="M2.27373675e-13,254.446022 L301.7,254.446022 L301.7,254.586022 C301.7,271.944332 287.62831,286.016022 270.27,286.016022 L2.27373675e-13,286.016022 L2.27373675e-13,254.446022 Z" id="Path" transform="translate(150.850000, 270.231022) rotate(180.000000) translate(-150.850000, -270.231022) "></path>
                        <rect id="Rectangle" transform="translate(343.256635, 138.875000) rotate(22.250000) translate(-343.256635, -138.875000) " x="331.171635" y="-6" width="24.17" height="289.75"></rect>
                    </g>
                </g>
                <g id="offerWebsiteImg-layer-01" transform="translate(1.909907, 1.640000)" stroke="#000000" stroke-width="3">
                    <g id="Path">
                        <path d="M476.320093,368.43 C535.400093,311.17 575.510093,361.12 575.510093,361.12 L601.090093,349.02 L629.630093,275.8 C631.907714,269.970422 638.266305,266.851932 644.270093,268.62 L644.270093,268.62 C647.410216,269.553486 650.036023,271.72325 651.544653,274.631136 C653.053284,277.539022 653.315137,280.935221 652.270093,284.04 L628.470093,354.47 L625.370093,364.98 L499.330093,431.9 C499.330093,431.9 507.800093,376.43 450.180093,379.61 C394.800093,382.61 348.340093,476.55 315.460093,408.83"></path>
                        <path d="M236.510093,228 L418.900093,0 C418.900093,0 583.760093,29.82 504.840093,161.36 L518.840093,199.95 L469.730093,198.19 L303.150093,454.24"></path>
                        <path d="M329.460093,308.67 C329.460093,308.67 336.460093,138.55 204.940093,184.15 C73.4200935,229.75 29.5600935,477.04 29.5600935,629.62 C29.5600935,782.2 375.090093,477.04 354.010093,555.96 C332.930093,634.88 175.090093,731.36 322.440093,731.36 C469.790093,731.36 666.190093,738.36 674.950093,727.85 C683.710093,717.34 578.500093,708.56 569.730093,708.56 C560.960093,708.56 731.080093,708.56 674.950093,699.79 C618.820093,691.02 550.440093,687.51 550.440093,687.51 C550.440093,687.51 738.090093,691.02 694.250093,684 C650.410093,676.98 559.250093,671.73 559.250093,671.73 C559.250093,671.73 720.600093,684 683.770093,671.73 C646.940093,659.46 550.490093,655.94 550.490093,655.94 C550.490093,655.94 711.780093,657.68 676.710093,645.36 C641.640093,633.04 546.930093,627.86 546.930093,627.86 C546.930093,627.86 401.360093,640.14 432.930093,610.33 C464.500093,580.52 576.740093,448.98 273.330093,352.52 C-30.0799065,256.06 175.090093,57.88 233.000093,114"></path>
                        <path d="M522.370093,478.79 C522.370093,478.79 627.600093,499.84 638.090093,455.99 C648.580093,412.14 701.220093,236.77 701.220093,264.83 C701.220093,292.89 687.220093,345.5 690.700093,336.73 C694.180093,327.96 718.760093,198.18 729.280093,243.73 C739.800093,289.28 724.090093,333.22 724.090093,333.22 C724.090093,333.22 760.920093,208.71 764.430093,238.52 C767.940093,268.33 746.890093,336.73 746.890093,336.73 C746.890093,336.73 792.490093,203.44 799.500093,238.52 C806.510093,273.6 771.440093,354.27 771.440093,354.27 C771.440093,354.27 827.570093,180.64 838.090093,231.5 C848.610093,282.36 815.290093,419.16 815.290093,419.16 C815.290093,419.16 804.770093,596.29 701.290093,575.25 C597.810093,554.21 290.870093,752.36 120.750093,562.97 C-49.3699065,373.58 -10.7799065,340.24 61.0900935,389.36"></path>
                    </g>
                </g>
                <g id="offerWebsiteImg-layer-02" transform="translate(0.190000, 0.540000)" fill="#4747F3" fill-rule="nonzero">
                    <g transform="translate(252.000000, 89.000000)" id="Oval">
                        <circle cx="12.31" cy="12.31" r="12.31"></circle>
                        <circle cx="121.65" cy="88.65" r="6.2"></circle>
                    </g>
                </g>
            </g>
        </g>
    </g>
</svg>